<?xml version="1.0" encoding="utf-8"?>
<!-- Generator: Adobe Illustrator 22.1.0, SVG Export Plug-In . SVG Version: 6.00 Build 0)  -->
<svg version="1.1" id="Calque_1" xmlns="http://www.w3.org/2000/svg" xmlns:xlink="http://www.w3.org/1999/xlink" x="0px" y="0px"
	 viewBox="0 0 100 100" style="enable-background:new 0 0 100 100;" xml:space="preserve">
<style type="text/css">
	.st0{fill:#57BC90;}
	.st1{fill:url(#SVGID_1_);}
	.st2{fill:#FFFFFF;}
</style>
<path class="st0" d="M84.8,53.7c0.1-1.2,0.2-2.4,0.2-3.7C85,27.4,66.6,9,44,9S3,27.4,3,50s18.3,41,41,41c7.7,0,14.9-2.1,21.1-5.8
	c15.8-8.7,32.3-2,32.3-2S84.4,71.2,84.8,53.7z M61.6,60.8C61.6,60.8,61.6,60.8,61.6,60.8L61.6,60.8C61.7,60.8,61.7,60.8,61.6,60.8z"
	/>
<linearGradient id="SVGID_1_" gradientUnits="userSpaceOnUse" x1="28.0464" y1="37.3692" x2="81.924" y2="77.9884">
	<stop  offset="0" style="stop-color:#57BC90"/>
	<stop  offset="0.2395" style="stop-color:#4AA27B"/>
	<stop  offset="0.5238" style="stop-color:#3E8969"/>
	<stop  offset="0.7851" style="stop-color:#377A5D"/>
	<stop  offset="1" style="stop-color:#347559"/>
</linearGradient>
<path class="st1" d="M77,54.9c0.1-0.9,0.1-1.8,0.1-2.6C77.1,36.1,64,23,47.8,23S18.5,36.1,18.5,52.3s13.1,29.3,29.3,29.3
	c5.5,0,10.7-1.5,15.1-4.2C74.2,71.2,86,75.9,86,75.9S76.7,67.4,77,54.9z M60.4,60C60.4,60,60.4,60,60.4,60L60.4,60
	C60.4,60,60.4,60,60.4,60z"/>
<path class="st2" d="M68.6,31.6c-4.7-3.2-10.4-5.1-16.6-5.1c-16.4,0-29.7,13.5-29.7,30.2c0,6.2,1.9,12,5.1,16.8
	c-7.9-5.4-13.1-14.6-13.1-25c0-16.7,13.3-30.2,29.7-30.2C54.3,18.2,63.3,23.5,68.6,31.6z"/>
<path class="st2" d="M73,42.9c-3.9-2.2-8.5-3.3-13.3-2.9C46.8,41,37.3,52.4,38.4,65.5c0.4,4.9,2.2,9.3,5.1,12.9
	c-6.6-3.7-11.2-10.6-11.9-18.8C30.4,46.5,40,35.1,52.8,34C60.9,33.3,68.3,36.9,73,42.9z"/>
<path class="st2" d="M71.4,52.6c-2.4-1-5-1.3-7.7-0.7c-7.2,1.5-11.7,8.7-10.1,16c0.6,2.7,1.9,5.1,3.8,6.9c-4-1.6-7.1-5.2-8.1-9.7
	c-1.6-7.3,3-14.4,10.1-16C63.9,48.2,68.3,49.6,71.4,52.6z"/>
<circle class="st2" cx="68.6" cy="65.3" r="5.3"/>
</svg>
