<?xml version="1.0" encoding="utf-8"?>
<!-- Generator: Adobe Illustrator 22.1.0, SVG Export Plug-In . SVG Version: 6.00 Build 0)  -->
<svg version="1.1" id="Calque_1" xmlns="http://www.w3.org/2000/svg" xmlns:xlink="http://www.w3.org/1999/xlink" x="0px" y="0px"
	 viewBox="0 0 300 300" style="enable-background:new 0 0 300 300;" xml:space="preserve">
<style type="text/css">
	.st0{fill:#57BC90;}
	.st1{fill:url(#SVGID_1_);}
	.st2{fill:#FFFFFF;}
</style>
<path class="st0" d="M251.4,160.4c0.3-3.6,0.5-7.2,0.5-10.9C251.9,82.9,197.9,29,131.4,29S10.9,82.9,10.9,149.5S64.8,270,131.4,270
	c22.6,0,43.8-6.2,61.9-17.1c46.4-25.5,95-6,95-6S250.1,211.9,251.4,160.4z M183.3,181.3C183.3,181.3,183.3,181.2,183.3,181.3
	L183.3,181.3C183.3,181.3,183.3,181.3,183.3,181.3z"/>
<linearGradient id="SVGID_1_" gradientUnits="userSpaceOnUse" x1="84.5023" y1="112.3018" x2="242.9264" y2="231.7403">
	<stop  offset="0" style="stop-color:#57BC90"/>
	<stop  offset="0.2395" style="stop-color:#4AA27B"/>
	<stop  offset="0.5238" style="stop-color:#3E8969"/>
	<stop  offset="0.7851" style="stop-color:#377A5D"/>
	<stop  offset="1" style="stop-color:#347559"/>
</linearGradient>
<path class="st1" d="M228.4,163.9c0.2-2.6,0.3-5.2,0.3-7.8c0-47.6-38.6-86.2-86.2-86.2s-86.2,38.6-86.2,86.2s38.6,86.2,86.2,86.2
	c16.2,0,31.3-4.5,44.3-12.2c33.2-18.2,68-4.3,68-4.3S227.5,200.7,228.4,163.9z M179.7,178.8C179.7,178.8,179.7,178.8,179.7,178.8
	L179.7,178.8C179.8,178.8,179.7,178.8,179.7,178.8z"/>
<path class="st2" d="M203.9,95.3c-13.9-9.5-30.7-15.1-48.7-15.1c-48.2,0-87.3,39.7-87.3,88.7c0,18.3,5.5,35.4,14.9,49.5
	c-23.3-15.9-38.6-43-38.6-73.6c0-49,39.1-88.7,87.3-88.7C161.6,56.1,188.2,71.6,203.9,95.3z"/>
<path class="st2" d="M216.7,128.4c-11.5-6.6-25-9.8-39.2-8.7c-37.8,3.1-65.9,36.8-62.7,75.3c1.2,14.4,6.6,27.4,14.9,37.9
	c-19.3-11-33.1-31.2-35-55.2c-3.2-38.4,24.9-72.1,62.7-75.3C181,100.4,202.9,110.9,216.7,128.4z"/>
<path class="st2" d="M211.9,157.2c-7-2.9-14.8-3.7-22.7-2c-21.1,4.5-34.4,25.5-29.8,46.9c1.7,8,5.7,14.9,11.1,20.2
	c-11.7-4.8-20.9-15.1-23.8-28.5c-4.6-21.4,8.7-42.4,29.8-46.9C189.8,144.1,202.9,148.3,211.9,157.2z"/>
<circle class="st2" cx="203.9" cy="194.3" r="15.5"/>
</svg>
