<?xml version="1.0" encoding="utf-8"?>
<!-- Generator: Adobe Illustrator 22.1.0, SVG Export Plug-In . SVG Version: 6.00 Build 0)  -->
<svg version="1.1" id="Calque_1" xmlns="http://www.w3.org/2000/svg" xmlns:xlink="http://www.w3.org/1999/xlink" x="0px" y="0px"
	 viewBox="0 0 60 60" style="enable-background:new 0 0 60 60;" xml:space="preserve">
<style type="text/css">
	.st0{fill:#57BC90;}
	.st1{fill:url(#SVGID_1_);}
	.st2{fill:#FFFFFF;}
</style>
<path class="st0" d="M50.6,32.3c0.1-0.7,0.1-1.4,0.1-2.2C50.7,16.8,39.9,6,26.6,6S2.5,16.8,2.5,30.1s10.8,24.1,24.1,24.1
	c4.5,0,8.8-1.2,12.4-3.4c9.3-5.1,19-1.2,19-1.2S50.4,42.6,50.6,32.3z M37,36.4C37,36.4,37,36.4,37,36.4L37,36.4
	C37,36.4,37,36.4,37,36.4z"/>
<linearGradient id="SVGID_1_" gradientUnits="userSpaceOnUse" x1="17.251" y1="22.6556" x2="48.9268" y2="46.5366">
	<stop  offset="0" style="stop-color:#57BC90"/>
	<stop  offset="0.2395" style="stop-color:#4AA27B"/>
	<stop  offset="0.5238" style="stop-color:#3E8969"/>
	<stop  offset="0.7851" style="stop-color:#377A5D"/>
	<stop  offset="1" style="stop-color:#347559"/>
</linearGradient>
<path class="st1" d="M46,33c0-0.5,0.1-1,0.1-1.6c0-9.5-7.7-17.2-17.2-17.2s-17.2,7.7-17.2,17.2s7.7,17.2,17.2,17.2
	c3.2,0,6.3-0.9,8.9-2.4c6.6-3.6,13.6-0.9,13.6-0.9S45.8,40.3,46,33z M36.3,36C36.3,36,36.3,36,36.3,36L36.3,36
	C36.3,36,36.3,36,36.3,36z"/>
<path class="st2" d="M41.1,19.2c-2.8-1.9-6.1-3-9.7-3c-9.6,0-17.5,7.9-17.5,17.7c0,3.7,1.1,7.1,3,9.9c-4.7-3.2-7.7-8.6-7.7-14.7
	c0-9.8,7.8-17.7,17.5-17.7C32.7,11.4,38,14.5,41.1,19.2z"/>
<path class="st2" d="M43.7,25.9c-2.3-1.3-5-2-7.8-1.7c-7.6,0.6-13.2,7.4-12.5,15c0.2,2.9,1.3,5.5,3,7.6c-3.9-2.2-6.6-6.2-7-11
	c-0.6-7.7,5-14.4,12.5-15C36.5,20.3,40.9,22.4,43.7,25.9z"/>
<path class="st2" d="M42.7,31.6c-1.4-0.6-3-0.7-4.5-0.4c-4.2,0.9-6.9,5.1-6,9.4c0.3,1.6,1.1,3,2.2,4c-2.3-1-4.2-3-4.8-5.7
	c-0.9-4.3,1.7-8.5,6-9.4C38.3,29,40.9,29.9,42.7,31.6z"/>
<circle class="st2" cx="41.1" cy="39" r="3.1"/>
</svg>
